<?xml version="1.0" encoding="iso-8859-1"?>
<!-- Generator: Adobe Illustrator 19.0.0, SVG Export Plug-In . SVG Version: 6.00 Build 0)  -->
<svg version="1.1" id="Layer_1" xmlns="http://www.w3.org/2000/svg" xmlns:xlink="http://www.w3.org/1999/xlink" x="0px" y="0px"
	 viewBox="0 0 512 512" style="enable-background:new 0 0 512 512;" xml:space="preserve">
<g>
	<rect x="389.812" y="277.688" style="fill:#F4C67D;" width="102.257" height="38.996"/>
	<rect x="19.931" y="277.688" style="fill:#F4C67D;" width="102.245" height="38.996"/>
	<rect x="123.124" y="195.073" style="fill:#F4C67D;" width="265.74" height="34.662"/>
</g>
<polygon style="fill:#F2F2F2;" points="255.997,128.35 222.634,195.073 289.358,195.073 "/>
<path d="M133.442,268.993H17.332V121.686c0-4.786-3.88-8.666-8.666-8.666S0,116.9,0,121.686v155.973c0,4.786,3.88,8.666,8.666,8.666
	h2.6v103.99c0,4.786,3.88,8.666,8.666,8.666s8.666-3.88,8.666-8.666v-64.994h84.914v64.994c0,4.786,3.88,8.666,8.666,8.666
	s8.666-3.88,8.666-8.666v-103.99h2.6c4.786,0,8.666-3.88,8.666-8.666C142.108,272.873,138.228,268.993,133.442,268.993z
	 M113.511,307.989H28.597v-21.665h84.914V307.989z"/>
<path d="M503.334,113.02c-4.787,0-8.666,3.88-8.666,8.666v147.307H378.546c-4.787,0-8.666,3.88-8.666,8.666
	c0,4.786,3.879,8.666,8.666,8.666h2.6v103.99c0,4.786,3.879,8.666,8.666,8.666s8.666-3.88,8.666-8.666v-64.994h84.925v64.994
	c0,4.786,3.879,8.666,8.666,8.666c4.787,0,8.666-3.88,8.666-8.666v-103.99h2.6c4.787,0,8.666-3.88,8.666-8.666V121.685
	C512,116.9,508.12,113.02,503.334,113.02z M483.403,307.989h-84.925v-21.665h84.925V307.989z"/>
<path d="M388.866,238.376c4.787,0,8.666-3.88,8.666-8.666v-25.996h7.121c4.787,0,8.666-3.88,8.666-8.666s-3.879-8.666-8.666-8.666
	h-15.787h-94.152l-30.966-61.933c-1.469-2.936-4.469-4.79-7.751-4.79c-3.283,0-6.283,1.854-7.751,4.79l-30.967,61.933h-94.152
	h-15.786c-4.786,0-8.666,3.88-8.666,8.666s3.88,8.666,8.666,8.666h7.12v25.996c0,4.786,3.88,8.666,8.666,8.666H152.3v151.933
	c0,4.786,3.88,8.666,8.666,8.666s8.666-3.88,8.666-8.666V238.376h125.654c4.787,0,8.666-3.88,8.666-8.666s-3.879-8.666-8.666-8.666
	H131.792v-17.33H380.2v17.33h-53.718c-4.787,0-8.666,3.88-8.666,8.666s3.879,8.666,8.666,8.666h15.879v151.933
	c0,4.786,3.879,8.666,8.666,8.666c4.787,0,8.666-3.88,8.666-8.666V238.376H388.866z M236.656,186.383l19.34-38.681l19.341,38.681
	H236.656z"/>
<g>
</g>
<g>
</g>
<g>
</g>
<g>
</g>
<g>
</g>
<g>
</g>
<g>
</g>
<g>
</g>
<g>
</g>
<g>
</g>
<g>
</g>
<g>
</g>
<g>
</g>
<g>
</g>
<g>
</g>
</svg>
