<?xml version="1.0" encoding="iso-8859-1"?>
<!-- Generator: Adobe Illustrator 19.0.0, SVG Export Plug-In . SVG Version: 6.00 Build 0)  -->
<svg version="1.1" id="Layer_1" xmlns="http://www.w3.org/2000/svg" xmlns:xlink="http://www.w3.org/1999/xlink" x="0px" y="0px"
	 viewBox="0 0 512 512" style="enable-background:new 0 0 512 512;" xml:space="preserve">
<path style="fill:#D4A8B4;" d="M279.311,109.225c0,12.875-10.436,23.311-23.311,23.311c-12.875,0-23.311-10.436-23.311-23.311
	c0-19.204,16.873-43.293,23.311-43.293C262.772,65.932,279.311,90.021,279.311,109.225z"/>
<g>
	<path style="fill:#3C1146;" d="M256,146.544c-20.578,0-37.32-16.741-37.32-37.32c0-14.975,7.029-28.997,11.218-36.023
		C238.319,59.082,247.1,51.924,256,51.924c19.243,0,37.32,35.747,37.32,57.3C293.32,129.802,276.578,146.544,256,146.544z
		 M256.067,84.216c-4.373,6.398-9.37,16.778-9.37,25.009c0,5.13,4.173,9.303,9.303,9.303c5.13,0,9.303-4.173,9.303-9.303
		C265.303,100.911,260.378,90.562,256.067,84.216z"/>
	<path style="fill:#3C1146;" d="M275.603,227.314h-39.208c-12.27,0-22.254-9.982-22.254-22.254v-54.326
		c0-12.271,9.982-22.255,22.254-22.255h39.208c12.271,0,22.255,9.984,22.255,22.255v54.326
		C297.859,217.331,287.875,227.314,275.603,227.314z M242.16,199.297h27.682v-42.801H242.16V199.297z"/>
	<path style="fill:#3C1146;" d="M388.377,227.538H123.623c-7.737,0-14.008-6.273-14.008-14.008c0-7.735,6.272-14.008,14.008-14.008
		h264.754c7.735,0,14.008,6.273,14.008,14.008C402.385,221.265,396.114,227.538,388.377,227.538z"/>
	<path style="fill:#3C1146;" d="M347.687,460.076c-7.735,0-14.008-6.273-14.008-14.008V338.672c0-7.735,6.273-14.008,14.008-14.008
		s14.008,6.273,14.008,14.008v107.396C361.695,453.803,355.423,460.076,347.687,460.076z"/>
	<path style="fill:#3C1146;" d="M164.312,297.116c-7.737,0-14.008-6.273-14.008-14.008v-69.578c0-7.735,6.272-14.008,14.008-14.008
		h183.375c7.735,0,14.008,6.273,14.008,14.008v66.781c0,7.735-6.273,14.008-14.008,14.008s-14.008-6.273-14.008-14.008v-52.773
		H178.32v55.57C178.32,290.843,172.049,297.116,164.312,297.116z"/>
	<path style="fill:#3C1146;" d="M164.312,460.076c-7.737,0-14.008-6.273-14.008-14.008V339.611c0-7.735,6.272-14.008,14.008-14.008
		s14.008,6.273,14.008,14.008v106.457C178.32,453.803,172.049,460.076,164.312,460.076z"/>
</g>
<path style="fill:#D4A8B4;" d="M497.992,312.053h-56.034V106.712c0-16.054,13.014-29.068,29.068-29.068l0,0
	c14.892,0,26.966,12.074,26.966,26.966V312.053z"/>
<g>
	<path style="fill:#3C1146;" d="M497.992,326.063h-56.034c-7.735,0-14.008-6.273-14.008-14.008V106.712
		c0-23.753,19.323-43.076,43.076-43.076c22.594,0,40.975,18.38,40.975,40.975v207.444C512,319.79,505.728,326.063,497.992,326.063z
		 M455.966,298.046h28.017V104.611c0-7.146-5.812-12.958-12.958-12.958c-8.304,0-15.059,6.755-15.059,15.059V298.046z"/>
	<path style="fill:#3C1146;" d="M497.992,326.063h-91.753c-7.735,0-14.008-6.273-14.008-14.008s6.273-14.008,14.008-14.008h91.752
		c7.735,0,14.008,6.273,14.008,14.008S505.728,326.063,497.992,326.063z"/>
	<path style="fill:#3C1146;" d="M497.992,460.076c-7.735,0-14.008-6.273-14.008-14.008V234.54c0-7.735,6.273-14.008,14.008-14.008
		c7.735,0,14.008,6.273,14.008,14.008v211.527C512,453.803,505.728,460.076,497.992,460.076z"/>
	<path style="fill:#3C1146;" d="M406.239,460.076c-7.735,0-14.008-6.273-14.008-14.008V312.055c0-7.735,6.273-14.008,14.008-14.008
		c7.735,0,14.008,6.273,14.008,14.008v134.013C420.248,453.803,413.976,460.076,406.239,460.076z"/>
</g>
<path style="fill:#D4A8B4;" d="M14.008,312.053h56.034V106.712c0-16.054-13.014-29.068-29.068-29.068l0,0
	c-14.892,0-26.966,12.074-26.966,26.966V312.053z"/>
<g>
	<path style="fill:#3C1146;" d="M70.042,326.063H14.008C6.272,326.063,0,319.79,0,312.055V104.611
		c0-22.594,18.382-40.975,40.975-40.975c23.753,0,43.076,19.323,43.076,43.076v205.343C84.051,319.79,77.779,326.063,70.042,326.063
		z M28.017,298.046h28.017V106.712c0-8.304-6.755-15.059-15.059-15.059c-7.146,0-12.958,5.812-12.958,12.958V298.046z"/>
	<path style="fill:#3C1146;" d="M105.761,326.063H14.008C6.272,326.063,0,319.79,0,312.055s6.272-14.008,14.008-14.008h91.752
		c7.737,0,14.008,6.273,14.008,14.008S113.498,326.063,105.761,326.063z"/>
	<path style="fill:#3C1146;" d="M14.008,460.076C6.272,460.076,0,453.803,0,446.068V234.54c0-7.735,6.272-14.008,14.008-14.008
		s14.008,6.273,14.008,14.008v211.527C28.017,453.803,21.745,460.076,14.008,460.076z"/>
	<path style="fill:#3C1146;" d="M105.761,460.076c-7.737,0-14.008-6.273-14.008-14.008V312.055c0-7.735,6.272-14.008,14.008-14.008
		s14.008,6.273,14.008,14.008v134.013C119.769,453.803,113.498,460.076,105.761,460.076z"/>
</g>
<g>
</g>
<g>
</g>
<g>
</g>
<g>
</g>
<g>
</g>
<g>
</g>
<g>
</g>
<g>
</g>
<g>
</g>
<g>
</g>
<g>
</g>
<g>
</g>
<g>
</g>
<g>
</g>
<g>
</g>
</svg>
